<svg version="1.2" xmlns="http://www.w3.org/2000/svg" viewBox="0 0 804 804" width="804" height="804">
	<style>
		.s0 { fill: #65ccb8 } 
	</style>
	<g>
		<g>
			<path class="s0" d="m795.04 387.99l-204.17-204.18c-6.35-6.34-17.59-6.34-23.94 0l-44.26 44.27c-6.61 6.61-6.61 17.33 0 23.94l147.95 147.93-147.94 147.95c-6.61 6.62-6.61 17.33 0 23.94l44.26 44.27c3.18 3.17 7.49 4.97 11.97 4.97 4.48 0 8.8-1.8 11.97-4.97l204.16-204.17c6.61-6.62 6.61-17.34 0-23.95z"/>
			<path class="s0" d="m277.31 547.9l-147.92-147.93 147.95-147.93c3.17-3.18 4.96-7.48 4.96-11.97 0-4.49-1.78-8.8-4.96-11.97l-44.27-44.27c-3.17-3.17-7.48-4.96-11.97-4.96-4.48 0-8.79 1.79-11.97 4.96l-204.18 204.16c-6.61 6.61-6.61 17.33 0 23.95l204.18 204.16c3.17 3.18 7.48 4.97 11.97 4.97 4.48 0 8.79-1.79 11.97-4.97l44.26-44.26c6.61-6.61 6.61-17.32-0.02-23.94z"/>
			<path class="s0" d="m516.1 115.13c-2.15-3.95-5.77-6.88-10.07-8.15l-35.89-10.59c-8.95-2.65-18.38 2.48-21.02 11.45l-166.59 564.15c-1.27 4.31-0.78 8.94 1.36 12.87 2.14 3.96 5.77 6.88 10.07 8.16l35.89 10.59q2.41 0.7 4.8 0.7c7.3 0 14.05-4.78 16.23-12.15l166.58-564.16c1.27-4.31 0.79-8.94-1.36-12.87z"/>
		</g>
	</g>
</svg>